<svg xmlns="http://www.w3.org/2000/svg" width="251" height="141" viewBox="0 0 132 74" fill="none">
  <!-- wheels -->
  <circle cx="32" cy="54" r="16" fill="#17181C"/>
  <circle cx="32" cy="54" r="8.5" fill="#FFFFFF"/>
  <circle cx="32" cy="54" r="3" fill="#C1F11D"/>
  <circle cx="104" cy="54" r="16" fill="#17181C"/>
  <circle cx="104" cy="54" r="8.5" fill="#FFFFFF"/>
  <circle cx="104" cy="54" r="3" fill="#C1F11D"/>
  <!-- frame -->
  <path d="M32 54 L62 50 L78 38 L98 42 L104 54" stroke="#C1F11D" stroke-width="6" stroke-linecap="round" stroke-linejoin="round" fill="none"/>
  <!-- engine -->
  <rect x="58" y="42" width="26" height="12" rx="3" fill="#17181C"/>
  <!-- tank -->
  <path d="M60 39 Q63 33 72 33 L80 33 L82 41 Q72 44 60 41 Z" fill="#C1F11D"/>
  <!-- seat + tail -->
  <path d="M30 36 L58 35 Q60 35 60 38 L60 40 L34 41 Q29 41 30 36 Z" fill="#17181C"/>
  <rect x="26" y="34" width="6" height="5" rx="1.5" fill="#C1F11D"/>
  <!-- fork -->
  <path d="M98 42 L104 54" stroke="#17181C" stroke-width="5" stroke-linecap="round"/>
  <!-- handlebar -->
  <path d="M97 40 L108 27" stroke="#17181C" stroke-width="5" stroke-linecap="round"/>
  <path d="M105 25 L114 28" stroke="#17181C" stroke-width="5" stroke-linecap="round"/>
  <!-- headlight -->
  <path d="M108 30 L118 33 L118 39 L108 38 Z" fill="#C1F11D"/>
  <!-- front fender -->
  <path d="M92 46 Q104 38 116 46" stroke="#C1F11D" stroke-width="4" stroke-linecap="round" fill="none"/>
</svg>
